{
	"asset":{
		"generator":"Khronos glTF Blender I/O v4.4.56",
		"version":"2.0"
	},
	"extensionsUsed":[
		"KHR_materials_unlit"
	],
	"scene":0,
	"scenes":[
		{
			"name":"Scene",
			"nodes":[
				7
			]
		}
	],
	"nodes":[
		{
			"mesh":0,
			"name":"Object_2"
		},
		{
			"mesh":1,
			"name":"Object_3"
		},
		{
			"mesh":2,
			"name":"Object_4"
		},
		{
			"mesh":3,
			"name":"Object_5"
		},
		{
			"mesh":4,
			"name":"Object_6"
		},
		{
			"mesh":5,
			"name":"Object_7"
		},
		{
			"children":[
				0,
				1,
				2,
				3,
				4,
				5
			],
			"name":"fiveHundred.obj.cleaner.materialmerger.gles"
		},
		{
			"children":[
				6
			],
			"name":"Sketchfab_model",
			"rotation":[
				0.4900514781475067,
				0.5749850273132324,
				-0.3920525014400482,
				0.5249159336090088
			],
			"scale":[
				0.4817465841770172,
				0.48174652457237244,
				0.4817465841770172
			],
			"translation":[
				-3.502009630203247,
				1.0381442308425903,
				-5.202292442321777
			]
		}
	],
	"materials":[
		{
			"doubleSided":true,
			"extensions":{
				"KHR_materials_unlit":{}
			},
			"name":"fiveHundred",
			"pbrMetallicRoughness":{
				"baseColorTexture":{
					"index":0
				},
				"metallicFactor":0,
				"roughnessFactor":0.9
			}
		}
	],
	"meshes":[
		{
			"name":"Object_0",
			"primitives":[
				{
					"attributes":{
						"POSITION":0,
						"NORMAL":1,
						"TEXCOORD_0":2
					},
					"indices":3,
					"material":0
				}
			]
		},
		{
			"name":"Object_1",
			"primitives":[
				{
					"attributes":{
						"POSITION":4,
						"NORMAL":5,
						"TEXCOORD_0":6
					},
					"indices":7,
					"material":0
				}
			]
		},
		{
			"name":"Object_2",
			"primitives":[
				{
					"attributes":{
						"POSITION":8,
						"NORMAL":9,
						"TEXCOORD_0":10
					},
					"indices":11,
					"material":0
				}
			]
		},
		{
			"name":"Object_3",
			"primitives":[
				{
					"attributes":{
						"POSITION":12,
						"NORMAL":13,
						"TEXCOORD_0":14
					},
					"indices":15,
					"material":0
				}
			]
		},
		{
			"name":"Object_4",
			"primitives":[
				{
					"attributes":{
						"POSITION":16,
						"NORMAL":17,
						"TEXCOORD_0":18
					},
					"indices":19,
					"material":0
				}
			]
		},
		{
			"name":"Object_5",
			"primitives":[
				{
					"attributes":{
						"POSITION":20,
						"NORMAL":21,
						"TEXCOORD_0":22
					},
					"indices":23,
					"material":0
				}
			]
		}
	],
	"textures":[
		{
			"sampler":0,
			"source":0
		}
	],
	"images":[
		{
			"mimeType":"image/jpeg",
			"name":"fiveHundred_baseColor",
			"uri":"fiveHundred_baseColor.jpg"
		}
	],
	"accessors":[
		{
			"bufferView":0,
			"componentType":5126,
			"count":65929,
			"max":[
				-4.175315856933594,
				9.86689567565918,
				10.847244262695312
			],
			"min":[
				-17.94796371459961,
				3.1894969940185547,
				-5.924088001251221
			],
			"type":"VEC3"
		},
		{
			"bufferView":1,
			"componentType":5126,
			"count":65929,
			"type":"VEC3"
		},
		{
			"bufferView":2,
			"componentType":5126,
			"count":65929,
			"type":"VEC2"
		},
		{
			"bufferView":3,
			"componentType":5125,
			"count":315180,
			"type":"SCALAR"
		},
		{
			"bufferView":4,
			"componentType":5126,
			"count":66017,
			"max":[
				-4.258472442626953,
				9.873759269714355,
				10.53148078918457
			],
			"min":[
				-17.8148193359375,
				3.257960081100464,
				-4.928041934967041
			],
			"type":"VEC3"
		},
		{
			"bufferView":5,
			"componentType":5126,
			"count":66017,
			"type":"VEC3"
		},
		{
			"bufferView":6,
			"componentType":5126,
			"count":66017,
			"type":"VEC2"
		},
		{
			"bufferView":7,
			"componentType":5125,
			"count":312891,
			"type":"SCALAR"
		},
		{
			"bufferView":8,
			"componentType":5126,
			"count":66043,
			"max":[
				-4.500229835510254,
				9.853815078735352,
				10.373517036437988
			],
			"min":[
				-17.953670501708984,
				3.6911370754241943,
				-3.880722999572754
			],
			"type":"VEC3"
		},
		{
			"bufferView":9,
			"componentType":5126,
			"count":66043,
			"type":"VEC3"
		},
		{
			"bufferView":10,
			"componentType":5126,
			"count":66043,
			"type":"VEC2"
		},
		{
			"bufferView":11,
			"componentType":5125,
			"count":302922,
			"type":"SCALAR"
		},
		{
			"bufferView":12,
			"componentType":5126,
			"count":66510,
			"max":[
				-4.953329086303711,
				9.441787719726562,
				10.699535369873047
			],
			"min":[
				-17.864652633666992,
				3.3046510219573975,
				-0.9187639951705933
			],
			"type":"VEC3"
		},
		{
			"bufferView":13,
			"componentType":5126,
			"count":66510,
			"type":"VEC3"
		},
		{
			"bufferView":14,
			"componentType":5126,
			"count":66510,
			"type":"VEC2"
		},
		{
			"bufferView":15,
			"componentType":5125,
			"count":268650,
			"type":"SCALAR"
		},
		{
			"bufferView":16,
			"componentType":5126,
			"count":67751,
			"max":[
				-4.462262153625488,
				8.94703483581543,
				10.821681022644043
			],
			"min":[
				-17.95401954650879,
				3.1894969940185547,
				-3.892025947570801
			],
			"type":"VEC3"
		},
		{
			"bufferView":17,
			"componentType":5126,
			"count":67751,
			"type":"VEC3"
		},
		{
			"bufferView":18,
			"componentType":5126,
			"count":67751,
			"type":"VEC2"
		},
		{
			"bufferView":19,
			"componentType":5125,
			"count":203973,
			"type":"SCALAR"
		},
		{
			"bufferView":20,
			"componentType":5126,
			"count":16394,
			"max":[
				-5.171520233154297,
				9.075456619262695,
				4.622528076171875
			],
			"min":[
				-16.533010482788086,
				4.274435997009277,
				1.2645889520645142
			],
			"type":"VEC3"
		},
		{
			"bufferView":21,
			"componentType":5126,
			"count":16394,
			"type":"VEC3"
		},
		{
			"bufferView":22,
			"componentType":5126,
			"count":16394,
			"type":"VEC2"
		},
		{
			"bufferView":23,
			"componentType":5123,
			"count":37176,
			"type":"SCALAR"
		}
	],
	"bufferViews":[
		{
			"buffer":0,
			"byteLength":791148,
			"byteOffset":0,
			"target":34962
		},
		{
			"buffer":0,
			"byteLength":791148,
			"byteOffset":791148,
			"target":34962
		},
		{
			"buffer":0,
			"byteLength":527432,
			"byteOffset":1582296,
			"target":34962
		},
		{
			"buffer":0,
			"byteLength":1260720,
			"byteOffset":2109728,
			"target":34963
		},
		{
			"buffer":0,
			"byteLength":792204,
			"byteOffset":3370448,
			"target":34962
		},
		{
			"buffer":0,
			"byteLength":792204,
			"byteOffset":4162652,
			"target":34962
		},
		{
			"buffer":0,
			"byteLength":528136,
			"byteOffset":4954856,
			"target":34962
		},
		{
			"buffer":0,
			"byteLength":1251564,
			"byteOffset":5482992,
			"target":34963
		},
		{
			"buffer":0,
			"byteLength":792516,
			"byteOffset":6734556,
			"target":34962
		},
		{
			"buffer":0,
			"byteLength":792516,
			"byteOffset":7527072,
			"target":34962
		},
		{
			"buffer":0,
			"byteLength":528344,
			"byteOffset":8319588,
			"target":34962
		},
		{
			"buffer":0,
			"byteLength":1211688,
			"byteOffset":8847932,
			"target":34963
		},
		{
			"buffer":0,
			"byteLength":798120,
			"byteOffset":10059620,
			"target":34962
		},
		{
			"buffer":0,
			"byteLength":798120,
			"byteOffset":10857740,
			"target":34962
		},
		{
			"buffer":0,
			"byteLength":532080,
			"byteOffset":11655860,
			"target":34962
		},
		{
			"buffer":0,
			"byteLength":1074600,
			"byteOffset":12187940,
			"target":34963
		},
		{
			"buffer":0,
			"byteLength":813012,
			"byteOffset":13262540,
			"target":34962
		},
		{
			"buffer":0,
			"byteLength":813012,
			"byteOffset":14075552,
			"target":34962
		},
		{
			"buffer":0,
			"byteLength":542008,
			"byteOffset":14888564,
			"target":34962
		},
		{
			"buffer":0,
			"byteLength":815892,
			"byteOffset":15430572,
			"target":34963
		},
		{
			"buffer":0,
			"byteLength":196728,
			"byteOffset":16246464,
			"target":34962
		},
		{
			"buffer":0,
			"byteLength":196728,
			"byteOffset":16443192,
			"target":34962
		},
		{
			"buffer":0,
			"byteLength":131152,
			"byteOffset":16639920,
			"target":34962
		},
		{
			"buffer":0,
			"byteLength":74352,
			"byteOffset":16771072,
			"target":34963
		}
	],
	"samplers":[
		{
			"magFilter":9729,
			"minFilter":9987
		}
	],
	"buffers":[
		{
			"byteLength":16845424,
			"uri":"kamushek.bin"
		}
	]
}
